<svg width="78" height="90" viewBox="0 0 78 90" fill="none" xmlns="http://www.w3.org/2000/svg">
<rect x="0.020813" y="72.0249" width="79.4118" height="15" transform="rotate(-53.1727 0.020813 72.0249)" fill="url(#paint0_linear_30_6)"/>
<rect x="0.020813" y="72.0249" width="79.4118" height="15" transform="rotate(-53.1727 0.020813 72.0249)" fill="url(#paint1_linear_30_6)"/>
<rect x="0.020813" y="72.0249" width="79.4118" height="15" transform="rotate(-53.1727 0.020813 72.0249)" fill="url(#paint2_linear_30_6)"/>
<rect x="0.020813" y="72.0249" width="79.4118" height="15" transform="rotate(-53.1727 0.020813 72.0249)" fill="url(#paint3_linear_30_6)"/>
<rect x="0.020813" y="72.0249" width="79.4118" height="15" transform="rotate(-53.1727 0.020813 72.0249)" fill="url(#paint4_linear_30_6)"/>
<rect x="0.720739" y="71.9244" width="78.4118" height="14" transform="rotate(-53.1727 0.720739 71.9244)" stroke="#0D0909" stroke-opacity="0.22"/>
<rect x="18" y="72.5647" width="79.4118" height="15" transform="rotate(-53.1727 18 72.5647)" fill="url(#paint5_linear_30_6)"/>
<rect x="18" y="72.5647" width="79.4118" height="15" transform="rotate(-53.1727 18 72.5647)" fill="url(#paint6_linear_30_6)"/>
<rect x="18" y="72.5647" width="79.4118" height="15" transform="rotate(-53.1727 18 72.5647)" fill="url(#paint7_linear_30_6)"/>
<rect x="18" y="72.5647" width="79.4118" height="15" transform="rotate(-53.1727 18 72.5647)" fill="url(#paint8_linear_30_6)"/>
<rect x="18" y="72.5647" width="79.4118" height="15" transform="rotate(-53.1727 18 72.5647)" fill="url(#paint9_linear_30_6)"/>
<rect x="18.6999" y="72.4642" width="78.4118" height="14" transform="rotate(-53.1727 18.6999 72.4642)" stroke="#0D0909" stroke-opacity="0.22"/>
<defs>
<linearGradient id="paint0_linear_30_6" x1="39.7267" y1="72.0249" x2="39.7267" y2="87.0249" gradientUnits="userSpaceOnUse">
<stop stop-color="#FE0606"/>
<stop offset="1" stop-color="#D9D9D9" stop-opacity="0"/>
</linearGradient>
<linearGradient id="paint1_linear_30_6" x1="39.7267" y1="72.0249" x2="39.7267" y2="87.0249" gradientUnits="userSpaceOnUse">
<stop stop-color="#FE0606"/>
<stop offset="1" stop-color="#D9D9D9" stop-opacity="0"/>
</linearGradient>
<linearGradient id="paint2_linear_30_6" x1="39.7267" y1="72.0249" x2="39.7267" y2="87.0249" gradientUnits="userSpaceOnUse">
<stop stop-color="#FE0606"/>
<stop offset="1" stop-color="#D9D9D9" stop-opacity="0"/>
</linearGradient>
<linearGradient id="paint3_linear_30_6" x1="39.7267" y1="72.0249" x2="39.7267" y2="87.0249" gradientUnits="userSpaceOnUse">
<stop stop-color="#FE0606"/>
<stop offset="1" stop-color="#D9D9D9" stop-opacity="0"/>
</linearGradient>
<linearGradient id="paint4_linear_30_6" x1="39.7267" y1="72.0249" x2="39.7267" y2="87.0249" gradientUnits="userSpaceOnUse">
<stop stop-color="#FE0606"/>
<stop offset="0.223958" stop-color="#F63232" stop-opacity="0.791667"/>
<stop offset="0.5" stop-color="#FE0606"/>
<stop offset="1" stop-color="#D9D9D9" stop-opacity="0"/>
</linearGradient>
<linearGradient id="paint5_linear_30_6" x1="57.7059" y1="72.5647" x2="57.7059" y2="87.5647" gradientUnits="userSpaceOnUse">
<stop stop-color="#FE0606"/>
<stop offset="1" stop-color="#D9D9D9" stop-opacity="0"/>
</linearGradient>
<linearGradient id="paint6_linear_30_6" x1="57.7059" y1="72.5647" x2="57.7059" y2="87.5647" gradientUnits="userSpaceOnUse">
<stop stop-color="#FE0606"/>
<stop offset="1" stop-color="#D9D9D9" stop-opacity="0"/>
</linearGradient>
<linearGradient id="paint7_linear_30_6" x1="57.7059" y1="72.5647" x2="57.7059" y2="87.5647" gradientUnits="userSpaceOnUse">
<stop offset="0.1875" stop-color="#FE0606"/>
<stop offset="1" stop-color="#D9D9D9" stop-opacity="0"/>
</linearGradient>
<linearGradient id="paint8_linear_30_6" x1="57.7059" y1="72.5647" x2="57.7059" y2="87.5647" gradientUnits="userSpaceOnUse">
<stop offset="0.494792" stop-color="#FE0606"/>
<stop offset="1" stop-color="#D9D9D9" stop-opacity="0"/>
</linearGradient>
<linearGradient id="paint9_linear_30_6" x1="57.7059" y1="72.5647" x2="57.7059" y2="87.5647" gradientUnits="userSpaceOnUse">
<stop stop-color="#FFB992"/>
<stop offset="1" stop-color="#D9D9D9" stop-opacity="0"/>
</linearGradient>
</defs>
</svg>
