<svg width="84" height="74" viewBox="0 0 84 74" fill="none" xmlns="http://www.w3.org/2000/svg">
<rect width="84" height="74" fill="white"/>
<path d="M56.5268 17.3987C53.424 12.7665 47.988 10 42 10C36.0121 10 30.5758 12.7669 27.4732 17.3987C24.6006 21.6778 24.2128 26.7765 26.4017 31.3841L31.4367 41.9655L31.4564 48.4318C31.4564 48.7782 31.7521 49.0622 32.1139 49.0622C32.4752 49.0622 32.7714 48.7787 32.7714 48.4318L32.7517 41.6881L27.5985 30.8609C25.6004 26.6512 25.9552 21.9935 28.5779 18.0864C31.4436 13.8133 36.4593 11.261 42.0002 11.261C47.541 11.261 52.557 13.8073 55.4224 18.0803C58.0451 21.9942 58.4069 26.6514 56.4018 30.8548L51.2486 41.6821L51.2289 45.243C51.2289 45.5894 51.5182 45.8734 51.8864 45.8734C52.2477 45.8734 52.5439 45.596 52.5439 45.243L52.5636 41.9534L57.5986 31.372C59.7871 26.7771 59.3992 21.6785 56.5271 17.3989L56.5268 17.3987Z" fill="black"/>
<path d="M51.6499 51.8739L32.0418 54.9934C31.687 55.0501 31.4435 55.3777 31.5026 55.7184C31.5554 56.027 31.8314 56.2476 32.1533 56.2476C32.1863 56.2476 32.2257 56.2476 32.2583 56.2415L51.8664 53.1154C52.2212 53.0587 52.4647 52.7312 52.4056 52.3905C52.3464 52.0503 52.0108 51.8173 51.6495 51.874L51.6499 51.8739Z" fill="#E4322E"/>
<path d="M51.6427 54.4943L32.0346 57.6138C31.6797 57.6705 31.4362 57.998 31.4954 58.3387C31.5481 58.6473 31.8241 58.868 32.146 58.868C32.179 58.868 32.2184 58.868 32.251 58.8619L51.8591 55.7358C52.214 55.6791 52.4575 55.3516 52.3983 55.0109C52.3392 54.6706 52.0035 54.4376 51.6422 54.4943L51.6427 54.4943Z" fill="black"/>
<path d="M45.0636 59.2211C44.7087 59.284 44.4721 59.6181 44.5441 59.9584C44.5638 60.0718 44.5771 60.2041 44.5771 60.3492C44.5771 61.0235 44.3011 61.654 43.8146 62.1327C43.3148 62.6053 42.6514 62.87 41.9481 62.87C40.6532 62.87 39.562 61.9815 39.3584 60.7651C39.2993 60.4249 38.9641 60.1914 38.6024 60.242C38.2475 60.2987 38.004 60.62 38.0567 60.9669C38.3722 62.801 40.0022 64.1308 41.9481 64.1308C42.9999 64.1308 43.9857 63.7399 44.7418 63.0216C45.4846 62.3033 45.8922 61.3515 45.8922 60.3497C45.8922 60.1228 45.8725 59.9149 45.8331 59.7193C45.767 59.3851 45.425 59.1583 45.0637 59.2212L45.0636 59.2211Z" fill="#FC6E6E"/>
<path d="M38.7263 49.0621C39.0876 49.0621 39.3838 48.7785 39.3838 48.4317L39.3834 35.7832L33.9143 30.5395C34.0523 30.2559 34.1311 29.9469 34.1311 29.6194C34.1311 28.4029 33.099 27.4133 31.8303 27.4133C30.5615 27.4133 29.5294 28.4029 29.5294 29.6194C29.5294 30.8358 30.5615 31.8254 31.8303 31.8254C32.2773 31.8254 32.6914 31.6992 33.0399 31.4851L38.0684 36.3064V48.4315C38.0688 48.7784 38.3646 49.0619 38.7263 49.0619L38.7263 49.0621ZM30.845 29.6195C30.845 29.0964 31.2856 28.6744 31.8307 28.6744C32.3764 28.6744 32.8165 29.0968 32.8165 29.6195C32.8165 30.1426 32.3759 30.5647 31.8307 30.5647C31.2851 30.5647 30.845 30.1361 30.845 29.6195V29.6195Z" fill="black"/>
<path d="M41.3427 31.0623V43.9561C41.3427 44.3025 41.6384 44.5865 42.0002 44.5865C42.3615 44.5865 42.6577 44.3029 42.6577 43.9561V31.5788L47.6862 26.7576V21.8924C48.6326 21.6216 49.3295 20.7833 49.3295 19.7876C49.3295 18.5711 48.2974 17.5815 47.0287 17.5815C45.7599 17.5815 44.7278 18.5711 44.7278 19.7876C44.7278 20.7833 45.4248 21.615 46.3711 21.8924V26.2349L41.3427 31.0623ZM46.0429 19.7935C46.0429 19.2704 46.4835 18.8484 47.0287 18.8484C47.5743 18.8484 48.0145 19.2708 48.0145 19.7935C48.0145 20.3167 47.5739 20.7387 47.0287 20.7387C46.4831 20.7387 46.0429 20.3167 46.0429 19.7935V19.7935Z" fill="black"/>
<path d="M44.5765 45.9986C44.5765 46.345 44.8722 46.629 45.234 46.629C45.5953 46.629 45.8915 46.3454 45.8915 45.9986L45.891 36.0599L50.9653 31.1947C51.2675 31.3398 51.6095 31.4216 51.9644 31.4216C53.2332 31.4216 54.2653 30.432 54.2653 29.2155C54.2653 27.9991 53.2332 27.0095 51.9644 27.0095C50.6957 27.0095 49.6636 27.9991 49.6636 29.2155C49.6636 29.6253 49.7883 30.0095 49.9923 30.3374L44.5759 35.5306L44.5765 45.9986ZM51.9644 28.2768C52.51 28.2768 52.9502 28.6992 52.9502 29.2219C52.9502 29.7451 52.5096 30.1671 51.9644 30.1671C51.4188 30.1671 50.9786 29.7446 50.9786 29.2219C50.9786 28.6992 51.4257 28.2768 51.9644 28.2768Z" fill="black"/>
<path d="M36.1041 18.0796C36.1041 16.8631 35.072 15.8735 33.8032 15.8735C32.5345 15.8735 31.5024 16.8631 31.5024 18.0796C31.5024 19.0753 32.1993 19.907 33.1457 20.1844V22.8252L38.0691 27.5457V32.6694C38.0691 33.0158 38.3649 33.2998 38.7266 33.2998C39.0879 33.2998 39.3841 33.0162 39.3841 32.6694V27.0225L34.4607 22.302V20.1844C35.4071 19.907 36.104 19.0753 36.104 18.0796H36.1041ZM32.8175 18.0796C32.8175 17.5564 33.2581 17.1344 33.8033 17.1344C34.3489 17.1344 34.7891 17.5569 34.7891 18.0796C34.7891 18.6027 34.3484 19.0247 33.8033 19.0247C33.2577 19.0247 32.8175 18.6027 32.8175 18.0796Z" fill="#EF6C6C"/>
</svg>
