<svg width="272" height="106" viewBox="0 0 272 106" fill="none" xmlns="http://www.w3.org/2000/svg">
<path d="M26.0694 4.01036C25.9426 5.57857 25.8475 7.0945 25.7841 8.55816C25.7524 10.0218 25.7365 11.1544 25.7365 11.9559C25.7365 12.7226 25.7524 13.4544 25.7841 14.1514C25.8158 14.8484 25.8475 15.4408 25.8792 15.9287H24.7856C24.3735 13.2105 23.803 11.0847 23.0739 9.55135C22.3449 7.98315 21.4415 6.86798 20.3638 6.20585C19.3178 5.54372 18.0657 5.21265 16.6076 5.21265H15.0386C14.1194 5.21265 13.422 5.29977 12.9465 5.47402C12.4711 5.64827 12.1541 5.99676 11.9956 6.51949C11.8371 7.04223 11.7579 7.84375 11.7579 8.92407V35.1654C11.7579 36.5245 11.8847 37.5351 12.1383 38.1973C12.3918 38.8594 12.8831 39.295 13.6122 39.5041C14.3412 39.7132 15.419 39.8352 16.8454 39.87V41.02C15.8627 40.9852 14.5948 40.9503 13.0416 40.9155C11.4885 40.8806 9.85603 40.8632 8.14435 40.8632C6.78136 40.8632 5.45006 40.8806 4.15045 40.9155C2.85085 40.9503 1.67804 40.9852 0.632019 41.02V39.9746C1.64634 39.9049 2.40709 39.7655 2.91425 39.5564C3.42141 39.3473 3.75423 38.9291 3.91272 38.3018C4.10291 37.6745 4.198 36.7336 4.198 35.479V9.55135C4.198 8.26194 4.10291 7.32102 3.91272 6.72859C3.75423 6.1013 3.40556 5.68311 2.8667 5.47402C2.35954 5.23008 1.61465 5.09068 0.632019 5.05583V4.01036C1.93162 4.04521 3.31047 4.08006 4.76856 4.11491C6.22665 4.11491 7.66889 4.13233 9.09528 4.16718C10.5217 4.16718 11.853 4.16718 13.0892 4.16718C14.3254 4.16718 15.3397 4.16718 16.1322 4.16718C17.5902 4.16718 19.2385 4.16718 21.077 4.16718C22.9471 4.13233 24.6113 4.08006 26.0694 4.01036ZM18.9849 22.097C18.9849 22.097 18.9849 22.2713 18.9849 22.6197C18.9849 22.9682 18.9849 23.1425 18.9849 23.1425H10.3315C10.3315 23.1425 10.3315 22.9682 10.3315 22.6197C10.3315 22.2713 10.3315 22.097 10.3315 22.097H18.9849ZM20.1736 15.1969C20.0468 17.1833 19.9834 18.6992 19.9834 19.7447C20.0151 20.7902 20.031 21.7485 20.031 22.6197C20.031 23.491 20.0468 24.4493 20.0785 25.4948C20.1102 26.5403 20.1894 28.0562 20.3162 30.0426H19.2227C19.0325 28.8229 18.7314 27.6903 18.3193 26.6448C17.9072 25.5993 17.305 24.763 16.5125 24.1357C15.7201 23.4735 14.6899 23.1425 13.422 23.1425V22.097C14.3729 22.097 15.1654 21.8879 15.7993 21.4697C16.465 21.0167 17.0197 20.4417 17.4635 19.7447C17.9072 19.0129 18.2559 18.2462 18.5095 17.4447C18.7631 16.6431 18.9532 15.8939 19.08 15.1969H20.1736Z" fill="#E4322E"/>
<path d="M39.3541 13.2628C42.1435 13.2628 44.3306 14.1689 45.9155 15.981C47.5004 17.7932 48.2929 20.7553 48.2929 24.8675H32.6501L32.555 23.8743H42.302C42.3337 22.1667 42.2386 20.5985 42.0167 19.1697C41.7948 17.706 41.4462 16.5386 40.9707 15.6674C40.4952 14.7961 39.8613 14.3605 39.0688 14.3605C37.9594 14.3605 37.0085 15.1272 36.2161 16.6606C35.4553 18.1939 34.9957 20.7379 34.8372 24.2925L34.9799 24.6061C34.9482 25.0243 34.9165 25.4599 34.8848 25.913C34.8848 26.366 34.8848 26.8365 34.8848 27.3244C34.8848 29.7289 35.1859 31.6805 35.7881 33.179C36.4221 34.6775 37.2145 35.7753 38.1655 36.4722C39.1164 37.1344 40.0832 37.4654 41.0658 37.4654C41.7314 37.4654 42.4129 37.3609 43.1103 37.1518C43.8393 36.9078 44.5684 36.4897 45.2974 35.8972C46.0265 35.2699 46.708 34.3987 47.3419 33.2835L48.1978 33.5972C47.8174 34.9215 47.2151 36.2109 46.391 37.4654C45.5669 38.72 44.5208 39.748 43.2529 40.5496C41.985 41.3511 40.4635 41.7519 38.6885 41.7519C36.533 41.7519 34.6312 41.2466 32.9829 40.2359C31.3346 39.2253 30.035 37.692 29.0841 35.6359C28.1649 33.5798 27.7052 30.9661 27.7052 27.7948C27.7052 24.5539 28.1966 21.8531 29.1792 19.6924C30.1935 17.5318 31.5724 15.9287 33.3157 14.8833C35.0908 13.8029 37.1036 13.2628 39.3541 13.2628Z" fill="#E4322E"/>
<path d="M67.1235 13.2628C68.1378 13.2628 68.9619 13.5067 69.5959 13.9946C70.2298 14.4476 70.6894 15.0401 70.9747 15.7719C71.2917 16.5037 71.4502 17.2704 71.4502 18.0719C71.4502 19.3614 71.1015 20.4243 70.4042 21.2606C69.7385 22.0622 68.851 22.4629 67.7416 22.4629C66.6321 22.4629 65.7605 22.1667 65.1265 21.5743C64.5243 20.947 64.2231 20.128 64.2231 19.1174C64.2231 18.1416 64.4133 17.3401 64.7937 16.7128C65.2058 16.0507 65.7129 15.4931 66.3152 15.0401C65.8714 14.9007 65.4276 14.9181 64.9839 15.0924C64.3816 15.1969 63.8111 15.4757 63.2722 15.9287C62.7333 16.3469 62.2737 16.8871 61.8934 17.5492C61.513 18.1765 61.2119 18.8735 60.99 19.6402C60.7681 20.372 60.6571 21.0864 60.6571 21.7834V35.6359C60.6571 37.3086 61.0217 38.4412 61.7507 39.0336C62.5115 39.6261 63.6367 39.9223 65.1265 39.9223V41.02C64.3975 40.9852 63.3356 40.9503 61.9409 40.9155C60.5462 40.8458 59.0881 40.8109 57.5666 40.8109C56.2987 40.8109 55.015 40.8458 53.7154 40.9155C52.4158 40.9503 51.4331 40.9852 50.7675 41.02V39.9223C51.8769 39.9223 52.6535 39.6609 53.0973 39.1382C53.5727 38.6154 53.8105 37.6223 53.8105 36.1586V19.6924C53.8105 18.1242 53.5886 16.9742 53.1448 16.2424C52.7327 15.4757 51.9403 15.0924 50.7675 15.0924V13.9946C51.7818 14.0992 52.7644 14.1514 53.7154 14.1514C55.0467 14.1514 56.2829 14.0992 57.424 13.9946C58.5968 13.8552 59.6745 13.6635 60.6571 13.4196V18.281C61.0375 17.3401 61.5447 16.4863 62.1786 15.7196C62.8126 14.953 63.5416 14.3605 64.3658 13.9423C65.1899 13.4893 66.1091 13.2628 67.1235 13.2628Z" fill="#E4322E"/>
<path d="M90.6493 13.2628C91.9806 13.2628 93.0583 13.4544 93.8824 13.8378C94.7383 14.1863 95.4039 14.6742 95.8794 15.3014C96.3865 15.9636 96.7511 16.8174 96.973 17.8629C97.2265 18.9083 97.3533 20.3197 97.3533 22.097V36.1586C97.3533 37.6223 97.5752 38.6154 98.019 39.1382C98.4944 39.6609 99.2869 39.9223 100.396 39.9223V41.02C99.794 40.9852 98.8907 40.9503 97.6862 40.9155C96.4816 40.8458 95.293 40.8109 94.1202 40.8109C92.9157 40.8109 91.727 40.8458 90.5542 40.9155C89.4131 40.9503 88.5414 40.9852 87.9391 41.02V39.9223C88.8901 39.9223 89.5557 39.6609 89.9361 39.1382C90.3165 38.6154 90.5066 37.6223 90.5066 36.1586V19.9015C90.5066 19.0303 90.4274 18.281 90.2689 17.6538C90.1104 16.9916 89.8251 16.4863 89.4131 16.1378C89.001 15.7545 88.3829 15.5628 87.5588 15.5628C86.7029 15.5628 85.9105 15.8242 85.1814 16.3469C84.4841 16.8697 83.9135 17.6015 83.4698 18.5424C83.0577 19.4485 82.8517 20.4765 82.8517 21.6265V36.1586C82.8517 37.6223 83.0419 38.6154 83.4222 39.1382C83.8343 39.6609 84.4999 39.9223 85.4192 39.9223V41.02C84.8486 40.9852 84.0086 40.9503 82.8992 40.9155C81.8215 40.8458 80.6962 40.8109 79.5234 40.8109C78.3189 40.8109 77.0827 40.8458 75.8148 40.9155C74.5469 40.9503 73.596 40.9852 72.962 41.02V39.9223C74.0714 39.9223 74.848 39.6609 75.2918 39.1382C75.7673 38.6154 76.005 37.6223 76.005 36.1586V19.6924C76.005 18.1242 75.7831 16.9742 75.3393 16.2424C74.9273 15.4757 74.1348 15.0924 72.962 15.0924V13.9946C73.9763 14.0992 74.959 14.1514 75.9099 14.1514C77.2412 14.1514 78.4774 14.0992 79.6185 13.9946C80.7913 13.8552 81.869 13.6635 82.8517 13.4196V18.1242C83.6441 16.3469 84.7218 15.0924 86.0848 14.3605C87.4478 13.6287 88.9693 13.2628 90.6493 13.2628Z" fill="#E4322E"/>
<path d="M108.729 41.3859C107.303 41.3859 106.114 41.0897 105.163 40.4973C104.212 39.9049 103.515 39.1208 103.071 38.145C102.627 37.1344 102.406 36.0366 102.406 34.8518C102.406 33.3532 102.707 32.1335 103.309 31.1926C103.943 30.2517 104.751 29.485 105.734 28.8926C106.716 28.3001 107.747 27.8122 108.824 27.4289C109.934 27.0456 110.98 26.6797 111.962 26.3312C112.977 25.9478 113.785 25.5122 114.387 25.0243C115.021 24.5016 115.338 23.8395 115.338 23.0379V18.9606C115.338 18.0545 115.195 17.253 114.91 16.556C114.657 15.8242 114.245 15.2666 113.674 14.8833C113.135 14.4999 112.422 14.3082 111.534 14.3082C110.9 14.3082 110.267 14.4128 109.633 14.6219C108.999 14.7961 108.476 15.1098 108.064 15.5628C108.951 15.9113 109.633 16.4515 110.108 17.1833C110.615 17.8803 110.869 18.6818 110.869 19.5879C110.869 20.7727 110.488 21.7137 109.728 22.4106C108.999 23.1076 108.127 23.4561 107.113 23.4561C105.971 23.4561 105.1 23.0728 104.498 22.3061C103.927 21.5046 103.642 20.5462 103.642 19.4311C103.642 18.4204 103.864 17.5841 104.307 16.9219C104.783 16.2598 105.433 15.6325 106.257 15.0401C107.144 14.4825 108.206 14.0469 109.442 13.7332C110.71 13.4196 112.073 13.2628 113.531 13.2628C114.989 13.2628 116.305 13.437 117.478 13.7855C118.651 14.0992 119.633 14.6916 120.426 15.5628C121.155 16.3643 121.63 17.3575 121.852 18.5424C122.074 19.6924 122.185 21.1561 122.185 22.9334V37.1518C122.185 38.023 122.264 38.6329 122.423 38.9814C122.581 39.295 122.85 39.4518 123.231 39.4518C123.516 39.4518 123.786 39.3647 124.039 39.1905C124.324 39.0162 124.626 38.8071 124.943 38.5632L125.418 39.4518C124.752 40.0791 123.976 40.567 123.088 40.9155C122.232 41.2291 121.266 41.3859 120.188 41.3859C119.015 41.3859 118.08 41.2117 117.383 40.8632C116.685 40.4799 116.178 39.9746 115.861 39.3473C115.576 38.72 115.433 37.9882 115.433 37.1518C114.672 38.4761 113.753 39.5215 112.676 40.2882C111.598 41.02 110.282 41.3859 108.729 41.3859ZM112.105 38.0404C112.739 38.0404 113.309 37.8836 113.817 37.57C114.356 37.2215 114.863 36.6639 115.338 35.8972V25.1811C115.053 25.7039 114.657 26.1743 114.149 26.5925C113.642 27.0107 113.103 27.4463 112.533 27.8994C111.962 28.3176 111.408 28.788 110.869 29.3108C110.362 29.8335 109.95 30.4782 109.633 31.2449C109.316 32.0116 109.157 32.9351 109.157 34.0154C109.157 35.3745 109.427 36.3851 109.965 37.0472C110.504 37.7094 111.217 38.0404 112.105 38.0404Z" fill="#E4322E"/>
<path d="M144.464 13.2628C145.795 13.2628 146.873 13.4544 147.697 13.8378C148.553 14.1863 149.219 14.6742 149.694 15.3014C150.201 15.9636 150.566 16.8174 150.788 17.8629C151.041 18.9083 151.168 20.3197 151.168 22.097V36.1586C151.168 37.6223 151.39 38.6154 151.834 39.1382C152.309 39.6609 153.102 39.9223 154.211 39.9223V41.02C153.609 40.9852 152.705 40.9503 151.501 40.9155C150.296 40.8458 149.108 40.8109 147.935 40.8109C146.73 40.8109 145.542 40.8458 144.369 40.9155C143.228 40.9503 142.356 40.9852 141.754 41.02V39.9223C142.705 39.9223 143.37 39.6609 143.751 39.1382C144.131 38.6154 144.321 37.6223 144.321 36.1586V19.9015C144.321 19.0303 144.242 18.281 144.084 17.6538C143.925 16.9916 143.64 16.4863 143.228 16.1378C142.816 15.7545 142.198 15.5628 141.374 15.5628C140.518 15.5628 139.725 15.8242 138.996 16.3469C138.299 16.8697 137.728 17.6015 137.285 18.5424C136.872 19.4485 136.666 20.4765 136.666 21.6265V36.1586C136.666 37.6223 136.857 38.6154 137.237 39.1382C137.649 39.6609 138.315 39.9223 139.234 39.9223V41.02C138.663 40.9852 137.823 40.9503 136.714 40.9155C135.636 40.8458 134.511 40.8109 133.338 40.8109C132.134 40.8109 130.897 40.8458 129.63 40.9155C128.362 40.9503 127.411 40.9852 126.777 41.02V39.9223C127.886 39.9223 128.663 39.6609 129.107 39.1382C129.582 38.6154 129.82 37.6223 129.82 36.1586V19.6924C129.82 18.1242 129.598 16.9742 129.154 16.2424C128.742 15.4757 127.95 15.0924 126.777 15.0924V13.9946C127.791 14.0992 128.774 14.1514 129.725 14.1514C131.056 14.1514 132.292 14.0992 133.433 13.9946C134.606 13.8552 135.684 13.6635 136.666 13.4196V18.1242C137.459 16.3469 138.537 15.0924 139.9 14.3605C141.263 13.6287 142.784 13.2628 144.464 13.2628Z" fill="#E4322E"/>
<path d="M179.375 0.0898438V35.2699C179.375 36.8381 179.597 38.0056 180.041 38.7723C180.485 39.5041 181.277 39.87 182.418 39.87V40.9678C181.436 40.8632 180.453 40.8109 179.47 40.8109C178.139 40.8109 176.887 40.8632 175.714 40.9678C174.573 41.0723 173.511 41.264 172.529 41.5428V6.36267C172.529 4.79446 172.307 3.64445 171.863 2.91262C171.451 2.14594 170.659 1.7626 169.486 1.7626V0.664855C170.5 0.7694 171.483 0.821673 172.434 0.821673C173.733 0.821673 174.969 0.7694 176.142 0.664855C177.315 0.525458 178.393 0.333788 179.375 0.0898438ZM167.251 13.2628C168.646 13.2628 169.866 13.5241 170.912 14.0469C171.99 14.5348 172.83 15.3711 173.432 16.556L172.862 17.131C172.449 16.2946 171.895 15.7022 171.197 15.3537C170.532 14.9704 169.819 14.7787 169.058 14.7787C167.441 14.7787 166.157 15.8242 165.207 17.9151C164.256 19.9712 163.796 23.1599 163.828 27.4812C163.828 30.4434 164.002 32.8131 164.351 34.5904C164.731 36.3328 165.254 37.5874 165.92 38.3541C166.617 39.1208 167.41 39.5041 168.297 39.5041C169.375 39.5041 170.342 39.0336 171.197 38.0927C172.053 37.1518 172.513 35.8798 172.576 34.2767L172.814 36.1063C172.338 37.9533 171.562 39.3647 170.484 40.3405C169.438 41.2814 168.059 41.7519 166.348 41.7519C164.477 41.7519 162.798 41.2466 161.308 40.2359C159.85 39.2253 158.709 37.6745 157.884 35.5836C157.06 33.4578 156.648 30.7221 156.648 27.3766C156.648 24.2054 157.108 21.5917 158.027 19.5356C158.946 17.4447 160.198 15.8765 161.783 14.831C163.4 13.7855 165.222 13.2628 167.251 13.2628Z" fill="#E4322E"/>
<path d="M196.666 13.2628C198.98 13.2628 201.008 13.7332 202.752 14.6742C204.495 15.6151 205.858 17.131 206.841 19.222C207.823 21.3129 208.315 24.0834 208.315 27.5335C208.315 30.9835 207.823 33.754 206.841 35.8449C205.858 37.901 204.495 39.3996 202.752 40.3405C201.008 41.2814 198.98 41.7519 196.666 41.7519C194.415 41.7519 192.403 41.2814 190.628 40.3405C188.884 39.3996 187.505 37.901 186.491 35.8449C185.508 33.754 185.017 30.9835 185.017 27.5335C185.017 24.0834 185.508 21.3129 186.491 19.222C187.505 17.131 188.884 15.6151 190.628 14.6742C192.403 13.7332 194.415 13.2628 196.666 13.2628ZM196.666 14.3082C195.398 14.3082 194.336 15.3537 193.48 17.4447C192.624 19.5008 192.197 22.8637 192.197 27.5335C192.197 32.2032 192.624 35.5662 193.48 37.6222C194.336 39.6783 195.398 40.7064 196.666 40.7064C197.966 40.7064 199.027 39.6783 199.852 37.6222C200.707 35.5662 201.135 32.2032 201.135 27.5335C201.135 22.8637 200.707 19.5008 199.852 17.4447C199.027 15.3537 197.966 14.3082 196.666 14.3082Z" fill="#E4322E"/>
<path d="M81.2388 58.3574L92.7926 91.0807C93.2364 92.3352 93.7277 93.2065 94.2665 93.6943C94.8371 94.1474 95.3442 94.3913 95.788 94.4262V95.4716C94.8371 95.4019 93.7118 95.3671 92.4122 95.3671C91.1443 95.3322 89.8606 95.3148 88.561 95.3148C87.1029 95.3148 85.724 95.3322 84.4244 95.3671C83.1248 95.3671 82.0946 95.4019 81.3339 95.4716V94.4262C82.9505 94.3565 83.9648 94.0603 84.3769 93.5375C84.8206 92.9799 84.7255 91.8125 84.0916 90.0352L76.0087 65.728L76.8645 64.3689L69.6375 85.0692C68.9401 86.9859 68.5122 88.5541 68.3537 89.7738C68.2269 90.9935 68.3062 91.9345 68.5915 92.5966C68.9084 93.2587 69.3997 93.7292 70.0654 94.008C70.7627 94.2519 71.5869 94.3913 72.5378 94.4262V95.4716C71.4918 95.4019 70.4933 95.3671 69.5424 95.3671C68.5915 95.3322 67.6247 95.3148 66.6421 95.3148C65.9447 95.3148 65.2791 95.3322 64.6451 95.3671C64.0428 95.3671 63.504 95.4019 63.0285 95.4716V94.4262C63.6942 94.2868 64.3757 93.8163 65.073 93.0148C65.7704 92.2133 66.4519 90.8541 67.1175 88.9374L77.9581 58.3574C78.4653 58.3923 79.0041 58.4097 79.5747 58.4097C80.1769 58.4097 80.7316 58.3923 81.2388 58.3574ZM84.5671 80.4169V81.4623H70.3982L70.8737 80.4169H84.5671Z" fill="#E4322E"/>
<path d="M105.82 105.299C103.855 105.299 102.095 105.107 100.542 104.724C99.0208 104.376 97.8163 103.818 96.9288 103.051C96.0729 102.319 95.645 101.413 95.645 100.333C95.645 99.2528 96.0888 98.277 96.9763 97.4058C97.8638 96.5694 99.1793 95.9073 100.923 95.4194L101.351 96.2557C100.748 96.7785 100.305 97.3361 100.019 97.9285C99.7657 98.5558 99.6389 99.2005 99.6389 99.8626C99.6389 101.326 100.241 102.441 101.446 103.208C102.682 104.01 104.346 104.41 106.438 104.41C107.864 104.41 109.132 104.201 110.242 103.783C111.383 103.365 112.27 102.738 112.904 101.901C113.57 101.065 113.903 100.037 113.903 98.8172C113.903 97.7717 113.554 96.883 112.857 96.1512C112.159 95.4542 110.765 95.1057 108.673 95.1057H105.725C104.425 95.1057 103.284 94.9489 102.301 94.6353C101.351 94.3216 100.606 93.8337 100.067 93.1716C99.528 92.4746 99.2585 91.6034 99.2585 90.5579C99.2585 89.0943 99.7815 87.8049 100.828 86.6897C101.874 85.5745 103.427 84.529 105.487 83.5533L105.963 83.9715C105.36 84.3896 104.79 84.8427 104.251 85.3306C103.744 85.7836 103.49 86.376 103.49 87.1079C103.49 88.223 104.124 88.7806 105.392 88.7806H110.575C112.318 88.7806 113.871 89.0071 115.234 89.4602C116.629 89.9132 117.722 90.6625 118.515 91.7079C119.339 92.7186 119.751 94.0428 119.751 95.6807C119.751 97.3883 119.244 98.974 118.23 100.438C117.247 101.901 115.725 103.069 113.665 103.94C111.605 104.846 108.99 105.299 105.82 105.299ZM106.295 84.3374C104.489 84.3374 102.872 84.0412 101.446 83.4487C100.019 82.8563 98.894 81.9502 98.0699 80.7305C97.2457 79.5108 96.8337 77.9426 96.8337 76.0259C96.8337 74.1092 97.2457 72.541 98.0699 71.3213C98.894 70.0667 100.019 69.1606 101.446 68.603C102.872 68.0106 104.489 67.7144 106.295 67.7144C108.102 67.7144 109.719 68.0106 111.145 68.603C112.572 69.1606 113.697 70.0667 114.521 71.3213C115.345 72.541 115.757 74.1092 115.757 76.0259C115.757 77.9426 115.345 79.5108 114.521 80.7305C113.697 81.9502 112.572 82.8563 111.145 83.4487C109.719 84.0412 108.102 84.3374 106.295 84.3374ZM106.295 83.3965C107.151 83.3965 107.817 82.8737 108.292 81.8282C108.768 80.7479 109.006 78.8138 109.006 76.0259C109.006 73.238 108.768 71.3213 108.292 70.2758C107.817 69.1955 107.151 68.6553 106.295 68.6553C105.471 68.6553 104.806 69.1955 104.298 70.2758C103.823 71.3213 103.585 73.238 103.585 76.0259C103.585 78.8138 103.823 80.7479 104.298 81.8282C104.806 82.8737 105.471 83.3965 106.295 83.3965ZM113.713 72.2099L112.762 71.844C113.237 70.4849 113.998 69.3523 115.044 68.4462C116.122 67.5401 117.279 67.0871 118.515 67.0871C119.529 67.0871 120.29 67.4007 120.797 68.028C121.336 68.6205 121.605 69.4046 121.605 70.3803C121.605 71.4258 121.352 72.2099 120.845 72.7326C120.337 73.2205 119.767 73.4645 119.133 73.4645C118.594 73.4645 118.087 73.2554 117.611 72.8372C117.168 72.419 116.914 71.7917 116.851 70.9553C116.787 70.0841 117.057 68.969 117.659 67.6098L117.992 67.9235C116.787 68.4114 115.884 68.9864 115.282 69.6485C114.679 70.2758 114.156 71.1296 113.713 72.2099Z" fill="#E4322E"/>
<path d="M146.555 67.8712V89.7738C146.555 91.342 146.776 92.5095 147.22 93.2761C147.664 94.008 148.456 94.3739 149.598 94.3739V95.4716C148.615 95.3671 147.632 95.3148 146.65 95.3148C145.318 95.3148 144.082 95.3671 142.941 95.4716C141.8 95.5762 140.722 95.7679 139.708 96.0466V91.342C138.947 93.0845 137.885 94.339 136.522 95.1057C135.191 95.8376 133.701 96.2035 132.053 96.2035C130.722 96.2035 129.644 96.0118 128.82 95.6285C127.996 95.2451 127.346 94.7572 126.87 94.1648C126.332 93.5027 125.951 92.6314 125.729 91.5511C125.507 90.4708 125.396 89.0768 125.396 87.3692V74.144C125.396 72.5758 125.175 71.4258 124.731 70.694C124.319 69.9273 123.526 69.544 122.353 69.544V68.4462C123.368 68.5508 124.35 68.603 125.301 68.603C126.633 68.603 127.869 68.5508 129.01 68.4462C130.183 68.3068 131.26 68.1152 132.243 67.8712V89.5125C132.243 90.3837 132.307 91.1504 132.433 91.8125C132.592 92.4746 132.877 92.9974 133.289 93.3807C133.701 93.7292 134.303 93.9034 135.096 93.9034C135.952 93.9034 136.712 93.6421 137.378 93.1193C138.075 92.5966 138.63 91.8822 139.042 90.9761C139.486 90.0352 139.708 88.9897 139.708 87.8397V74.144C139.708 72.5758 139.486 71.4258 139.042 70.694C138.63 69.9273 137.838 69.544 136.665 69.544V68.4462C137.679 68.5508 138.662 68.603 139.613 68.603C140.944 68.603 142.18 68.5508 143.321 68.4462C144.494 68.3068 145.572 68.1152 146.555 67.8712Z" fill="#E4322E"/>
<path d="M157.892 54.9596C159.223 54.9596 160.269 55.3256 161.03 56.0574C161.822 56.7544 162.219 57.7301 162.219 58.9847C162.219 60.2393 161.822 61.2325 161.03 61.9643C160.269 62.6613 159.223 63.0098 157.892 63.0098C156.561 63.0098 155.499 62.6613 154.706 61.9643C153.945 61.2325 153.565 60.2393 153.565 58.9847C153.565 57.7301 153.945 56.7544 154.706 56.0574C155.499 55.3256 156.561 54.9596 157.892 54.9596ZM161.6 67.8712V90.6102C161.6 92.0739 161.822 93.0671 162.266 93.5898C162.742 94.1125 163.534 94.3739 164.643 94.3739V95.4716C164.073 95.4368 163.185 95.4019 161.981 95.3671C160.776 95.2974 159.556 95.2625 158.32 95.2625C157.084 95.2625 155.831 95.2974 154.564 95.3671C153.296 95.4019 152.345 95.4368 151.711 95.4716V94.3739C152.82 94.3739 153.597 94.1125 154.041 93.5898C154.516 93.0671 154.754 92.0739 154.754 90.6102V74.144C154.754 72.5758 154.532 71.4258 154.088 70.694C153.676 69.9273 152.884 69.544 151.711 69.544V68.4462C152.725 68.5508 153.708 68.603 154.659 68.603C155.99 68.603 157.226 68.5508 158.367 68.4462C159.54 68.3068 160.618 68.1152 161.6 67.8712Z" fill="#E4322E"/>
<path d="M173.27 95.8376C171.843 95.8376 170.655 95.5413 169.704 94.9489C168.753 94.3565 168.055 93.5724 167.612 92.5966C167.168 91.586 166.946 90.4882 166.946 89.3034C166.946 87.8049 167.247 86.5851 167.849 85.6442C168.483 84.7033 169.292 83.9366 170.274 83.3442C171.257 82.7517 172.287 82.2639 173.365 81.8805C174.474 81.4972 175.52 81.1313 176.503 80.7828C177.517 80.3994 178.326 79.9638 178.928 79.4759C179.562 78.9532 179.879 78.2911 179.879 77.4895V73.4122C179.879 72.5061 179.736 71.7046 179.451 71.0076C179.197 70.2758 178.785 69.7182 178.215 69.3349C177.676 68.9515 176.963 68.7599 176.075 68.7599C175.441 68.7599 174.807 68.8644 174.173 69.0735C173.539 69.2477 173.016 69.5614 172.604 70.0144C173.492 70.3629 174.173 70.9031 174.649 71.6349C175.156 72.3319 175.409 73.1334 175.409 74.0395C175.409 75.2244 175.029 76.1653 174.268 76.8623C173.539 77.5592 172.667 77.9077 171.653 77.9077C170.512 77.9077 169.64 77.5244 169.038 76.7577C168.468 75.9562 168.182 74.9978 168.182 73.8827C168.182 72.872 168.404 72.0357 168.848 71.3735C169.323 70.7114 169.973 70.0841 170.797 69.4917C171.685 68.9341 172.747 68.4985 173.983 68.1848C175.251 67.8712 176.614 67.7144 178.072 67.7144C179.53 67.7144 180.845 67.8886 182.018 68.2371C183.191 68.5508 184.174 69.1432 184.966 70.0144C185.695 70.8159 186.171 71.8091 186.393 72.994C186.614 74.144 186.725 75.6077 186.725 77.385V91.6034C186.725 92.4746 186.805 93.0845 186.963 93.433C187.122 93.7466 187.391 93.9034 187.771 93.9034C188.057 93.9034 188.326 93.8163 188.58 93.6421C188.865 93.4678 189.166 93.2587 189.483 93.0148L189.959 93.9034C189.293 94.5307 188.516 95.0186 187.629 95.3671C186.773 95.6807 185.806 95.8376 184.728 95.8376C183.556 95.8376 182.621 95.6633 181.923 95.3148C181.226 94.9315 180.719 94.4262 180.402 93.7989C180.116 93.1716 179.974 92.4398 179.974 91.6034C179.213 92.9277 178.294 93.9731 177.216 94.7398C176.138 95.4716 174.823 95.8376 173.27 95.8376ZM176.646 92.492C177.279 92.492 177.85 92.3352 178.357 92.0216C178.896 91.6731 179.403 91.1155 179.879 90.3488V79.6328C179.593 80.1555 179.197 80.6259 178.69 81.0441C178.183 81.4623 177.644 81.8979 177.073 82.351C176.503 82.7692 175.948 83.2396 175.409 83.7624C174.902 84.2851 174.49 84.9298 174.173 85.6965C173.856 86.4632 173.698 87.3867 173.698 88.467C173.698 89.8261 173.967 90.8367 174.506 91.4989C175.045 92.161 175.758 92.492 176.646 92.492Z" fill="#E4322E"/>
<path d="M207.673 67.7144C208.688 67.7144 209.512 67.9583 210.146 68.4462C210.78 68.8993 211.239 69.4917 211.525 70.2235C211.842 70.9553 212 71.722 212 72.5236C212 73.813 211.651 74.8759 210.954 75.7122C210.288 76.5138 209.401 76.9145 208.291 76.9145C207.182 76.9145 206.31 76.6183 205.676 76.0259C205.074 75.3986 204.773 74.5796 204.773 73.569C204.773 72.5932 204.963 71.7917 205.344 71.1644C205.756 70.5023 206.263 69.9447 206.865 69.4917C206.421 69.3523 205.977 69.3697 205.534 69.544C204.931 69.6485 204.361 69.9273 203.822 70.3803C203.283 70.7985 202.824 71.3387 202.443 72.0008C202.063 72.6281 201.762 73.3251 201.54 74.0918C201.318 74.8236 201.207 75.538 201.207 76.235V90.0875C201.207 91.7602 201.571 92.8928 202.301 93.4852C203.061 94.0777 204.187 94.3739 205.676 94.3739V95.4716C204.947 95.4368 203.885 95.4019 202.491 95.3671C201.096 95.2974 199.638 95.2625 198.116 95.2625C196.849 95.2625 195.565 95.2974 194.265 95.3671C192.966 95.4019 191.983 95.4368 191.317 95.4716V94.3739C192.427 94.3739 193.203 94.1125 193.647 93.5898C194.123 93.0671 194.36 92.0739 194.36 90.6102V74.144C194.36 72.5758 194.138 71.4258 193.695 70.694C193.283 69.9273 192.49 69.544 191.317 69.544V68.4462C192.332 68.5508 193.314 68.603 194.265 68.603C195.596 68.603 196.833 68.5508 197.974 68.4462C199.147 68.3068 200.224 68.1152 201.207 67.8712V72.7326C201.587 71.7917 202.094 70.9379 202.728 70.1712C203.362 69.4046 204.091 68.8121 204.916 68.3939C205.74 67.9409 206.659 67.7144 207.673 67.7144Z" fill="#E4322E"/>
<path d="M269.527 12.1482C266.424 7.10361 260.988 4.09082 255 4.09082C249.012 4.09082 243.576 7.1041 240.473 12.1482C237.601 16.8083 237.213 22.3609 239.402 27.3788L244.437 38.9023L244.456 45.9443C244.456 46.3215 244.752 46.6308 245.114 46.6308C245.475 46.6308 245.771 46.322 245.771 45.9443L245.752 38.6002L240.599 26.809C238.6 22.2245 238.955 17.1521 241.578 12.8972C244.444 8.24366 249.459 5.46411 255 5.46411C260.541 5.46411 265.557 8.23705 268.422 12.8906C271.045 17.1528 271.407 22.2248 269.402 26.8024L264.249 38.5936L264.229 42.4715C264.229 42.8488 264.518 43.1581 264.886 43.1581C265.248 43.1581 265.544 42.856 265.544 42.4715L265.564 38.8891L270.599 27.3656C272.787 22.3617 272.399 16.8091 269.527 12.1484L269.527 12.1482Z" fill="black"/>
<path d="M264.65 49.6928L245.042 53.09C244.687 53.1518 244.444 53.5085 244.503 53.8795C244.555 54.2156 244.831 54.4559 245.153 54.4559C245.186 54.4559 245.226 54.4559 245.258 54.4492L264.866 51.0449C265.221 50.9831 265.465 50.6264 265.406 50.2554C265.346 49.8848 265.011 49.6311 264.65 49.6929L264.65 49.6928Z" fill="#E4322E"/>
<path d="M264.643 52.5465L245.035 55.9438C244.68 56.0056 244.436 56.3622 244.495 56.7333C244.548 57.0694 244.824 57.3097 245.146 57.3097C245.179 57.3097 245.218 57.3097 245.251 57.303L264.859 53.8986C265.214 53.8369 265.457 53.4802 265.398 53.1091C265.339 52.7386 265.004 52.4848 264.642 52.5466L264.643 52.5465Z" fill="black"/>
<path d="M258.064 57.6942C257.709 57.7627 257.472 58.1265 257.544 58.4971C257.564 58.6206 257.577 58.7647 257.577 58.9227C257.577 59.6571 257.301 60.3437 256.815 60.865C256.315 61.3797 255.651 61.6679 254.948 61.6679C253.653 61.6679 252.562 60.7004 252.358 59.3757C252.299 59.0051 251.964 58.7509 251.602 58.806C251.247 58.8677 251.004 59.2177 251.057 59.5954C251.372 61.5928 253.002 63.041 254.948 63.041C256 63.041 256.986 62.6154 257.742 61.8331C258.485 61.0508 258.892 60.0143 258.892 58.9232C258.892 58.6762 258.872 58.4497 258.833 58.2367C258.767 57.8728 258.425 57.6258 258.064 57.6943L258.064 57.6942Z" fill="#FC6E6E"/>
<path d="M251.726 46.6306C252.088 46.6306 252.384 46.3218 252.384 45.9441L252.383 32.1695L246.914 26.4589C247.052 26.1501 247.131 25.8136 247.131 25.4569C247.131 24.1321 246.099 23.0544 244.83 23.0544C243.562 23.0544 242.529 24.1321 242.529 25.4569C242.529 26.7816 243.562 27.8593 244.83 27.8593C245.277 27.8593 245.691 27.7219 246.04 27.4888L251.068 32.7393V45.9439C251.069 46.3217 251.365 46.6305 251.726 46.6305L251.726 46.6306ZM243.845 25.457C243.845 24.8873 244.286 24.4277 244.831 24.4277C245.376 24.4277 245.817 24.8878 245.817 25.457C245.817 26.0268 245.376 26.4864 244.831 26.4864C244.285 26.4864 243.845 26.0196 243.845 25.457V25.457Z" fill="black"/>
<path d="M254.343 27.0283V41.0701C254.343 41.4474 254.638 41.7566 255 41.7566C255.362 41.7566 255.658 41.4479 255.658 41.0701V27.5909L260.686 22.3404V17.0421C261.633 16.7472 262.33 15.8342 262.33 14.7498C262.33 13.4251 261.297 12.3474 260.029 12.3474C258.76 12.3474 257.728 13.4251 257.728 14.7498C257.728 15.8342 258.425 16.74 259.371 17.0421V21.7712L254.343 27.0283ZM259.043 14.7563C259.043 14.1866 259.484 13.727 260.029 13.727C260.574 13.727 261.014 14.1871 261.014 14.7563C261.014 15.3261 260.574 15.7857 260.029 15.7857C259.483 15.7857 259.043 15.3261 259.043 14.7563V14.7563Z" fill="black"/>
<path d="M257.576 43.2945C257.576 43.6717 257.872 43.981 258.234 43.981C258.595 43.981 258.891 43.6722 258.891 43.2945L258.891 32.4709L263.965 27.1726C264.267 27.3306 264.61 27.4196 264.964 27.4196C266.233 27.4196 267.265 26.3419 267.265 25.0172C267.265 23.6924 266.233 22.6147 264.964 22.6147C263.696 22.6147 262.664 23.6924 262.664 25.0172C262.664 25.4634 262.788 25.8818 262.992 26.239L257.576 31.8945L257.576 43.2945ZM264.964 23.9948C265.51 23.9948 265.95 24.4549 265.95 25.0241C265.95 25.5939 265.51 26.0535 264.964 26.0535C264.419 26.0535 263.979 25.5934 263.979 25.0241C263.979 24.4549 264.426 23.9948 264.964 23.9948Z" fill="black"/>
<path d="M249.104 12.8897C249.104 11.565 248.072 10.4873 246.803 10.4873C245.535 10.4873 244.502 11.565 244.502 12.8897C244.502 13.9741 245.199 14.8799 246.146 15.182V18.0579L251.069 23.1987V28.7785C251.069 29.1557 251.365 29.465 251.727 29.465C252.088 29.465 252.384 29.1562 252.384 28.7785V22.6289L247.461 17.4881V15.182C248.407 14.8799 249.104 13.9741 249.104 12.8897H249.104ZM245.818 12.8897C245.818 12.32 246.258 11.8604 246.803 11.8604C247.349 11.8604 247.789 12.3205 247.789 12.8897C247.789 13.4594 247.348 13.9191 246.803 13.9191C246.258 13.9191 245.818 13.4594 245.818 12.8897Z" fill="#EF6C6C"/>
</svg>
