<svg width="215" height="98" viewBox="0 0 215 98" fill="none" xmlns="http://www.w3.org/2000/svg">
<path d="M26.312 4.01602C26.184 5.45602 26.088 6.84802 26.024 8.19202C25.992 9.53602 25.976 10.576 25.976 11.312C25.976 12.016 25.992 12.688 26.024 13.328C26.056 13.968 26.088 14.512 26.12 14.96H25.016C24.6 12.464 24.024 10.512 23.288 9.10402C22.552 7.66402 21.64 6.64002 20.552 6.03202C19.496 5.42402 18.232 5.12002 16.76 5.12002H15.176C14.248 5.12002 13.544 5.20002 13.064 5.36002C12.584 5.52002 12.264 5.84002 12.104 6.32002C11.944 6.80002 11.864 7.53602 11.864 8.52802V32.624C11.864 33.872 11.992 34.8 12.248 35.408C12.504 36.016 13 36.416 13.736 36.608C14.472 36.8 15.56 36.912 17 36.944V38C16.008 37.968 14.728 37.936 13.16 37.904C11.592 37.872 9.94402 37.856 8.21602 37.856C6.84002 37.856 5.49602 37.872 4.18402 37.904C2.87202 37.936 1.68802 37.968 0.632019 38V37.04C1.65602 36.976 2.42402 36.848 2.93602 36.656C3.44802 36.464 3.78402 36.08 3.94402 35.504C4.13602 34.928 4.23202 34.064 4.23202 32.912V9.10402C4.23202 7.92002 4.13602 7.05602 3.94402 6.51202C3.78402 5.93602 3.43202 5.55202 2.88802 5.36002C2.37602 5.13602 1.62402 5.00802 0.632019 4.97602V4.01602C1.94402 4.04802 3.33602 4.08002 4.80802 4.11202C6.28002 4.11202 7.73602 4.12802 9.17602 4.16002C10.616 4.16002 11.96 4.16002 13.208 4.16002C14.456 4.16002 15.48 4.16002 16.28 4.16002C17.752 4.16002 19.416 4.16002 21.272 4.16002C23.16 4.12802 24.84 4.08002 26.312 4.01602ZM19.16 20.624C19.16 20.624 19.16 20.784 19.16 21.104C19.16 21.424 19.16 21.584 19.16 21.584H10.424C10.424 21.584 10.424 21.424 10.424 21.104C10.424 20.784 10.424 20.624 10.424 20.624H19.16ZM20.36 14.288C20.232 16.112 20.168 17.504 20.168 18.464C20.2 19.424 20.216 20.304 20.216 21.104C20.216 21.904 20.232 22.784 20.264 23.744C20.296 24.704 20.376 26.096 20.504 27.92H19.4C19.208 26.8 18.904 25.76 18.488 24.8C18.072 23.84 17.464 23.072 16.664 22.496C15.864 21.888 14.824 21.584 13.544 21.584V20.624C14.504 20.624 15.304 20.432 15.944 20.048C16.616 19.632 17.176 19.104 17.624 18.464C18.072 17.792 18.424 17.088 18.68 16.352C18.936 15.616 19.128 14.928 19.256 14.288H20.36Z" fill="#E4322E"/>
<path d="M39.7235 12.512C42.5395 12.512 44.7475 13.344 46.3475 15.008C47.9475 16.672 48.7475 19.392 48.7475 23.168H32.9555L32.8595 22.256H42.6995C42.7315 20.688 42.6355 19.248 42.4115 17.936C42.1875 16.592 41.8355 15.52 41.3555 14.72C40.8755 13.92 40.2355 13.52 39.4355 13.52C38.3155 13.52 37.3555 14.224 36.5555 15.632C35.7875 17.04 35.3235 19.376 35.1635 22.64L35.3075 22.928C35.2755 23.312 35.2435 23.712 35.2115 24.128C35.2115 24.544 35.2115 24.976 35.2115 25.424C35.2115 27.632 35.5155 29.424 36.1235 30.8C36.7635 32.176 37.5635 33.184 38.5235 33.824C39.4835 34.432 40.4595 34.736 41.4515 34.736C42.1235 34.736 42.8115 34.64 43.5155 34.448C44.2515 34.224 44.9875 33.84 45.7235 33.296C46.4595 32.72 47.1475 31.92 47.7875 30.896L48.6515 31.184C48.2675 32.4 47.6595 33.584 46.8275 34.736C45.9955 35.888 44.9395 36.832 43.6595 37.568C42.3795 38.304 40.8435 38.672 39.0515 38.672C36.8755 38.672 34.9555 38.208 33.2915 37.28C31.6275 36.352 30.3155 34.944 29.3555 33.056C28.4275 31.168 27.9635 28.768 27.9635 25.856C27.9635 22.88 28.4595 20.4 29.4515 18.416C30.4755 16.432 31.8675 14.96 33.6275 14C35.4195 13.008 37.4515 12.512 39.7235 12.512Z" fill="#E4322E"/>
<path d="M67.7578 12.512C68.7818 12.512 69.6138 12.736 70.2538 13.184C70.8938 13.6 71.3578 14.144 71.6458 14.816C71.9658 15.488 72.1258 16.192 72.1258 16.928C72.1258 18.112 71.7738 19.088 71.0698 19.856C70.3978 20.592 69.5018 20.96 68.3818 20.96C67.2618 20.96 66.3818 20.688 65.7418 20.144C65.1338 19.568 64.8298 18.816 64.8298 17.888C64.8298 16.992 65.0218 16.256 65.4058 15.68C65.8218 15.072 66.3338 14.56 66.9418 14.144C66.4938 14.016 66.0458 14.032 65.5978 14.192C64.9898 14.288 64.4138 14.544 63.8698 14.96C63.3258 15.344 62.8618 15.84 62.4778 16.448C62.0938 17.024 61.7898 17.664 61.5658 18.368C61.3418 19.04 61.2298 19.696 61.2298 20.336V33.056C61.2298 34.592 61.5978 35.632 62.3338 36.176C63.1018 36.72 64.2378 36.992 65.7418 36.992V38C65.0058 37.968 63.9338 37.936 62.5258 37.904C61.1178 37.84 59.6458 37.808 58.1098 37.808C56.8298 37.808 55.5338 37.84 54.2218 37.904C52.9098 37.936 51.9178 37.968 51.2458 38V36.992C52.3658 36.992 53.1498 36.752 53.5978 36.272C54.0778 35.792 54.3178 34.88 54.3178 33.536V18.416C54.3178 16.976 54.0938 15.92 53.6458 15.248C53.2298 14.544 52.4298 14.192 51.2458 14.192V13.184C52.2698 13.28 53.2618 13.328 54.2218 13.328C55.5658 13.328 56.8138 13.28 57.9658 13.184C59.1498 13.056 60.2378 12.88 61.2298 12.656V17.12C61.6138 16.256 62.1258 15.472 62.7658 14.768C63.4058 14.064 64.1418 13.52 64.9738 13.136C65.8058 12.72 66.7338 12.512 67.7578 12.512Z" fill="#E4322E"/>
<path d="M91.508 12.512C92.852 12.512 93.94 12.688 94.772 13.04C95.636 13.36 96.308 13.808 96.788 14.384C97.3 14.992 97.668 15.776 97.892 16.736C98.148 17.696 98.276 18.992 98.276 20.624V33.536C98.276 34.88 98.5 35.792 98.948 36.272C99.428 36.752 100.228 36.992 101.348 36.992V38C100.74 37.968 99.828 37.936 98.612 37.904C97.396 37.84 96.196 37.808 95.012 37.808C93.796 37.808 92.596 37.84 91.412 37.904C90.26 37.936 89.38 37.968 88.772 38V36.992C89.732 36.992 90.404 36.752 90.788 36.272C91.172 35.792 91.364 34.88 91.364 33.536V18.608C91.364 17.808 91.284 17.12 91.124 16.544C90.964 15.936 90.676 15.472 90.26 15.152C89.844 14.8 89.22 14.624 88.388 14.624C87.524 14.624 86.724 14.864 85.988 15.344C85.284 15.824 84.708 16.496 84.26 17.36C83.844 18.192 83.636 19.136 83.636 20.192V33.536C83.636 34.88 83.828 35.792 84.212 36.272C84.628 36.752 85.3 36.992 86.228 36.992V38C85.652 37.968 84.804 37.936 83.684 37.904C82.596 37.84 81.46 37.808 80.276 37.808C79.06 37.808 77.812 37.84 76.532 37.904C75.252 37.936 74.292 37.968 73.652 38V36.992C74.772 36.992 75.556 36.752 76.004 36.272C76.484 35.792 76.724 34.88 76.724 33.536V18.416C76.724 16.976 76.5 15.92 76.052 15.248C75.636 14.544 74.836 14.192 73.652 14.192V13.184C74.676 13.28 75.668 13.328 76.628 13.328C77.972 13.328 79.22 13.28 80.372 13.184C81.556 13.056 82.644 12.88 83.636 12.656V16.976C84.436 15.344 85.524 14.192 86.9 13.52C88.276 12.848 89.812 12.512 91.508 12.512Z" fill="#E4322E"/>
<path d="M109.76 38.336C108.32 38.336 107.12 38.064 106.16 37.52C105.2 36.976 104.496 36.256 104.048 35.36C103.6 34.432 103.376 33.424 103.376 32.336C103.376 30.96 103.68 29.84 104.288 28.976C104.928 28.112 105.744 27.408 106.736 26.864C107.728 26.32 108.768 25.872 109.856 25.52C110.976 25.168 112.032 24.832 113.024 24.512C114.048 24.16 114.864 23.76 115.472 23.312C116.112 22.832 116.432 22.224 116.432 21.488V17.744C116.432 16.912 116.288 16.176 116 15.536C115.744 14.864 115.328 14.352 114.752 14C114.208 13.648 113.488 13.472 112.592 13.472C111.952 13.472 111.312 13.568 110.672 13.76C110.032 13.92 109.504 14.208 109.088 14.624C109.984 14.944 110.672 15.44 111.152 16.112C111.664 16.752 111.92 17.488 111.92 18.32C111.92 19.408 111.536 20.272 110.768 20.912C110.032 21.552 109.152 21.872 108.128 21.872C106.976 21.872 106.096 21.52 105.488 20.816C104.912 20.08 104.624 19.2 104.624 18.176C104.624 17.248 104.848 16.48 105.296 15.872C105.776 15.264 106.432 14.688 107.264 14.144C108.16 13.632 109.232 13.232 110.48 12.944C111.76 12.656 113.136 12.512 114.608 12.512C116.08 12.512 117.408 12.672 118.592 12.992C119.776 13.28 120.768 13.824 121.568 14.624C122.304 15.36 122.784 16.272 123.008 17.36C123.232 18.416 123.344 19.76 123.344 21.392V34.448C123.344 35.248 123.424 35.808 123.584 36.128C123.744 36.416 124.016 36.56 124.4 36.56C124.688 36.56 124.96 36.48 125.216 36.32C125.504 36.16 125.808 35.968 126.128 35.744L126.608 36.56C125.936 37.136 125.152 37.584 124.256 37.904C123.392 38.192 122.416 38.336 121.328 38.336C120.144 38.336 119.2 38.176 118.496 37.856C117.792 37.504 117.28 37.04 116.96 36.464C116.672 35.888 116.528 35.216 116.528 34.448C115.76 35.664 114.832 36.624 113.744 37.328C112.656 38 111.328 38.336 109.76 38.336ZM113.168 35.264C113.808 35.264 114.384 35.12 114.896 34.832C115.44 34.512 115.952 34 116.432 33.296V23.456C116.144 23.936 115.744 24.368 115.232 24.752C114.72 25.136 114.176 25.536 113.6 25.952C113.024 26.336 112.464 26.768 111.92 27.248C111.408 27.728 110.992 28.32 110.672 29.024C110.352 29.728 110.192 30.576 110.192 31.568C110.192 32.816 110.464 33.744 111.008 34.352C111.552 34.96 112.272 35.264 113.168 35.264Z" fill="#E4322E"/>
<path d="M145.836 12.512C147.18 12.512 148.268 12.688 149.1 13.04C149.964 13.36 150.636 13.808 151.116 14.384C151.628 14.992 151.996 15.776 152.22 16.736C152.476 17.696 152.604 18.992 152.604 20.624V33.536C152.604 34.88 152.828 35.792 153.276 36.272C153.756 36.752 154.556 36.992 155.676 36.992V38C155.068 37.968 154.156 37.936 152.94 37.904C151.724 37.84 150.524 37.808 149.34 37.808C148.124 37.808 146.924 37.84 145.74 37.904C144.588 37.936 143.708 37.968 143.1 38V36.992C144.06 36.992 144.732 36.752 145.116 36.272C145.5 35.792 145.692 34.88 145.692 33.536V18.608C145.692 17.808 145.612 17.12 145.452 16.544C145.292 15.936 145.004 15.472 144.588 15.152C144.172 14.8 143.548 14.624 142.716 14.624C141.852 14.624 141.052 14.864 140.316 15.344C139.612 15.824 139.036 16.496 138.588 17.36C138.172 18.192 137.964 19.136 137.964 20.192V33.536C137.964 34.88 138.156 35.792 138.54 36.272C138.956 36.752 139.628 36.992 140.556 36.992V38C139.98 37.968 139.132 37.936 138.012 37.904C136.924 37.84 135.788 37.808 134.604 37.808C133.388 37.808 132.14 37.84 130.86 37.904C129.58 37.936 128.62 37.968 127.98 38V36.992C129.1 36.992 129.884 36.752 130.332 36.272C130.812 35.792 131.052 34.88 131.052 33.536V18.416C131.052 16.976 130.828 15.92 130.38 15.248C129.964 14.544 129.164 14.192 127.98 14.192V13.184C129.004 13.28 129.996 13.328 130.956 13.328C132.3 13.328 133.548 13.28 134.7 13.184C135.884 13.056 136.972 12.88 137.964 12.656V16.976C138.764 15.344 139.852 14.192 141.228 13.52C142.604 12.848 144.14 12.512 145.836 12.512Z" fill="#E4322E"/>
<path d="M181.081 0.416016V32.72C181.081 34.16 181.305 35.232 181.753 35.936C182.201 36.608 183.001 36.944 184.153 36.944V37.952C183.161 37.856 182.169 37.808 181.177 37.808C179.833 37.808 178.569 37.856 177.385 37.952C176.233 38.048 175.161 38.224 174.169 38.48V6.17602C174.169 4.73602 173.945 3.68002 173.497 3.00802C173.081 2.30402 172.281 1.95202 171.097 1.95202V0.944017C172.121 1.04002 173.113 1.08802 174.073 1.08802C175.385 1.08802 176.633 1.04002 177.817 0.944017C179.001 0.816017 180.089 0.640017 181.081 0.416016ZM168.841 12.512C170.249 12.512 171.481 12.752 172.537 13.232C173.625 13.68 174.473 14.448 175.081 15.536L174.505 16.064C174.089 15.296 173.529 14.752 172.825 14.432C172.153 14.08 171.433 13.904 170.665 13.904C169.033 13.904 167.737 14.864 166.777 16.784C165.817 18.672 165.353 21.6 165.385 25.568C165.385 28.288 165.561 30.464 165.913 32.096C166.297 33.696 166.825 34.848 167.497 35.552C168.201 36.256 169.001 36.608 169.897 36.608C170.985 36.608 171.961 36.176 172.825 35.312C173.689 34.448 174.153 33.28 174.217 31.808L174.457 33.488C173.977 35.184 173.193 36.48 172.105 37.376C171.049 38.24 169.657 38.672 167.929 38.672C166.041 38.672 164.345 38.208 162.841 37.28C161.369 36.352 160.217 34.928 159.385 33.008C158.553 31.056 158.137 28.544 158.137 25.472C158.137 22.56 158.601 20.16 159.529 18.272C160.457 16.352 161.721 14.912 163.321 13.952C164.953 12.992 166.793 12.512 168.841 12.512Z" fill="#E4322E"/>
<path d="M198.536 12.512C200.872 12.512 202.92 12.944 204.68 13.808C206.44 14.672 207.816 16.064 208.808 17.984C209.8 19.904 210.296 22.448 210.296 25.616C210.296 28.784 209.8 31.328 208.808 33.248C207.816 35.136 206.44 36.512 204.68 37.376C202.92 38.24 200.872 38.672 198.536 38.672C196.264 38.672 194.232 38.24 192.44 37.376C190.68 36.512 189.288 35.136 188.264 33.248C187.272 31.328 186.776 28.784 186.776 25.616C186.776 22.448 187.272 19.904 188.264 17.984C189.288 16.064 190.68 14.672 192.44 13.808C194.232 12.944 196.264 12.512 198.536 12.512ZM198.536 13.472C197.256 13.472 196.184 14.432 195.32 16.352C194.456 18.24 194.024 21.328 194.024 25.616C194.024 29.904 194.456 32.992 195.32 34.88C196.184 36.768 197.256 37.712 198.536 37.712C199.848 37.712 200.92 36.768 201.752 34.88C202.616 32.992 203.048 29.904 203.048 25.616C203.048 21.328 202.616 18.24 201.752 16.352C200.92 14.432 199.848 13.472 198.536 13.472Z" fill="#E4322E"/>
<path d="M82.0078 53.92L93.6718 83.968C94.1198 85.12 94.6158 85.92 95.1598 86.368C95.7358 86.784 96.2478 87.008 96.6958 87.04V88C95.7358 87.936 94.5998 87.904 93.2878 87.904C92.0078 87.872 90.7118 87.856 89.3998 87.856C87.9278 87.856 86.5358 87.872 85.2238 87.904C83.9118 87.904 82.8718 87.936 82.1038 88V87.04C83.7358 86.976 84.7598 86.704 85.1758 86.224C85.6238 85.712 85.5278 84.64 84.8878 83.008L76.7278 60.688L77.5918 59.44L70.2958 78.448C69.5918 80.208 69.1598 81.648 68.9998 82.768C68.8718 83.888 68.9518 84.752 69.2398 85.36C69.5598 85.968 70.0558 86.4 70.7278 86.656C71.4318 86.88 72.2638 87.008 73.2238 87.04V88C72.1678 87.936 71.1598 87.904 70.1998 87.904C69.2398 87.872 68.2638 87.856 67.2718 87.856C66.5678 87.856 65.8958 87.872 65.2558 87.904C64.6478 87.904 64.1038 87.936 63.6238 88V87.04C64.2958 86.912 64.9838 86.48 65.6878 85.744C66.3918 85.008 67.0798 83.76 67.7518 82L78.6958 53.92C79.2078 53.952 79.7518 53.968 80.3278 53.968C80.9358 53.968 81.4958 53.952 82.0078 53.92ZM85.3678 74.176V75.136H71.0638L71.5438 74.176H85.3678Z" fill="#E4322E"/>
<path d="M106.823 97.024C104.839 97.024 103.063 96.848 101.495 96.496C99.9594 96.176 98.7434 95.664 97.8474 94.96C96.9834 94.288 96.5514 93.456 96.5514 92.464C96.5514 91.472 96.9994 90.576 97.8954 89.776C98.7914 89.008 100.119 88.4 101.879 87.952L102.311 88.72C101.703 89.2 101.255 89.712 100.967 90.256C100.711 90.832 100.583 91.424 100.583 92.032C100.583 93.376 101.191 94.4 102.407 95.104C103.655 95.84 105.335 96.208 107.447 96.208C108.887 96.208 110.167 96.016 111.287 95.632C112.439 95.248 113.335 94.672 113.975 93.904C114.647 93.136 114.983 92.192 114.983 91.072C114.983 90.112 114.631 89.296 113.927 88.624C113.223 87.984 111.815 87.664 109.703 87.664H106.727C105.415 87.664 104.263 87.52 103.271 87.232C102.311 86.944 101.559 86.496 101.015 85.888C100.471 85.248 100.199 84.448 100.199 83.488C100.199 82.144 100.727 80.96 101.783 79.936C102.839 78.912 104.407 77.952 106.487 77.056L106.967 77.44C106.359 77.824 105.783 78.24 105.239 78.688C104.727 79.104 104.471 79.648 104.471 80.32C104.471 81.344 105.111 81.856 106.391 81.856H111.623C113.383 81.856 114.951 82.064 116.327 82.48C117.735 82.896 118.839 83.584 119.639 84.544C120.471 85.472 120.887 86.688 120.887 88.192C120.887 89.76 120.375 91.216 119.351 92.56C118.359 93.904 116.823 94.976 114.743 95.776C112.663 96.608 110.023 97.024 106.823 97.024ZM107.303 77.776C105.479 77.776 103.847 77.504 102.407 76.96C100.967 76.416 99.8314 75.584 98.9994 74.464C98.1674 73.344 97.7514 71.904 97.7514 70.144C97.7514 68.384 98.1674 66.944 98.9994 65.824C99.8314 64.672 100.967 63.84 102.407 63.328C103.847 62.784 105.479 62.512 107.303 62.512C109.127 62.512 110.759 62.784 112.199 63.328C113.639 63.84 114.775 64.672 115.607 65.824C116.439 66.944 116.855 68.384 116.855 70.144C116.855 71.904 116.439 73.344 115.607 74.464C114.775 75.584 113.639 76.416 112.199 76.96C110.759 77.504 109.127 77.776 107.303 77.776ZM107.303 76.912C108.167 76.912 108.839 76.432 109.319 75.472C109.799 74.48 110.039 72.704 110.039 70.144C110.039 67.584 109.799 65.824 109.319 64.864C108.839 63.872 108.167 63.376 107.303 63.376C106.471 63.376 105.799 63.872 105.287 64.864C104.807 65.824 104.567 67.584 104.567 70.144C104.567 72.704 104.807 74.48 105.287 75.472C105.799 76.432 106.471 76.912 107.303 76.912ZM114.791 66.64L113.831 66.304C114.311 65.056 115.079 64.016 116.135 63.184C117.223 62.352 118.391 61.936 119.639 61.936C120.663 61.936 121.431 62.224 121.943 62.8C122.487 63.344 122.759 64.064 122.759 64.96C122.759 65.92 122.503 66.64 121.991 67.12C121.479 67.568 120.903 67.792 120.263 67.792C119.719 67.792 119.207 67.6 118.727 67.216C118.279 66.832 118.023 66.256 117.959 65.488C117.895 64.688 118.167 63.664 118.775 62.416L119.111 62.704C117.895 63.152 116.983 63.68 116.375 64.288C115.767 64.864 115.239 65.648 114.791 66.64Z" fill="#E4322E"/>
<path d="M147.947 62.656V82.768C147.947 84.208 148.171 85.28 148.619 85.984C149.067 86.656 149.867 86.992 151.019 86.992V88C150.027 87.904 149.035 87.856 148.043 87.856C146.699 87.856 145.451 87.904 144.299 88C143.147 88.096 142.059 88.272 141.035 88.528V84.208C140.267 85.808 139.195 86.96 137.819 87.664C136.475 88.336 134.971 88.672 133.307 88.672C131.963 88.672 130.875 88.496 130.043 88.144C129.211 87.792 128.555 87.344 128.075 86.8C127.531 86.192 127.147 85.392 126.923 84.4C126.699 83.408 126.587 82.128 126.587 80.56V68.416C126.587 66.976 126.363 65.92 125.915 65.248C125.499 64.544 124.699 64.192 123.515 64.192V63.184C124.539 63.28 125.531 63.328 126.491 63.328C127.835 63.328 129.083 63.28 130.235 63.184C131.419 63.056 132.507 62.88 133.499 62.656V82.528C133.499 83.328 133.563 84.032 133.691 84.64C133.851 85.248 134.139 85.728 134.555 86.08C134.971 86.4 135.579 86.56 136.379 86.56C137.243 86.56 138.011 86.32 138.683 85.84C139.387 85.36 139.947 84.704 140.363 83.872C140.811 83.008 141.035 82.048 141.035 80.992V68.416C141.035 66.976 140.811 65.92 140.363 65.248C139.947 64.544 139.147 64.192 137.963 64.192V63.184C138.987 63.28 139.979 63.328 140.939 63.328C142.283 63.328 143.531 63.28 144.683 63.184C145.867 63.056 146.955 62.88 147.947 62.656Z" fill="#E4322E"/>
<path d="M159.392 50.8C160.736 50.8 161.792 51.136 162.56 51.808C163.36 52.448 163.76 53.344 163.76 54.496C163.76 55.648 163.36 56.56 162.56 57.232C161.792 57.872 160.736 58.192 159.392 58.192C158.048 58.192 156.976 57.872 156.176 57.232C155.408 56.56 155.024 55.648 155.024 54.496C155.024 53.344 155.408 52.448 156.176 51.808C156.976 51.136 158.048 50.8 159.392 50.8ZM163.136 62.656V83.536C163.136 84.88 163.36 85.792 163.808 86.272C164.288 86.752 165.088 86.992 166.208 86.992V88C165.632 87.968 164.736 87.936 163.52 87.904C162.304 87.84 161.072 87.808 159.824 87.808C158.576 87.808 157.312 87.84 156.032 87.904C154.752 87.936 153.792 87.968 153.152 88V86.992C154.272 86.992 155.056 86.752 155.504 86.272C155.984 85.792 156.224 84.88 156.224 83.536V68.416C156.224 66.976 156 65.92 155.552 65.248C155.136 64.544 154.336 64.192 153.152 64.192V63.184C154.176 63.28 155.168 63.328 156.128 63.328C157.472 63.328 158.72 63.28 159.872 63.184C161.056 63.056 162.144 62.88 163.136 62.656Z" fill="#E4322E"/>
<path d="M174.917 88.336C173.477 88.336 172.277 88.064 171.317 87.52C170.357 86.976 169.653 86.256 169.205 85.36C168.757 84.432 168.533 83.424 168.533 82.336C168.533 80.96 168.837 79.84 169.445 78.976C170.085 78.112 170.901 77.408 171.893 76.864C172.885 76.32 173.925 75.872 175.013 75.52C176.133 75.168 177.189 74.832 178.181 74.512C179.205 74.16 180.021 73.76 180.629 73.312C181.269 72.832 181.589 72.224 181.589 71.488V67.744C181.589 66.912 181.445 66.176 181.157 65.536C180.901 64.864 180.485 64.352 179.909 64C179.365 63.648 178.645 63.472 177.749 63.472C177.109 63.472 176.469 63.568 175.829 63.76C175.189 63.92 174.661 64.208 174.245 64.624C175.141 64.944 175.829 65.44 176.309 66.112C176.821 66.752 177.077 67.488 177.077 68.32C177.077 69.408 176.693 70.272 175.925 70.912C175.189 71.552 174.309 71.872 173.285 71.872C172.133 71.872 171.253 71.52 170.645 70.816C170.069 70.08 169.781 69.2 169.781 68.176C169.781 67.248 170.005 66.48 170.453 65.872C170.933 65.264 171.589 64.688 172.421 64.144C173.317 63.632 174.389 63.232 175.637 62.944C176.917 62.656 178.293 62.512 179.765 62.512C181.237 62.512 182.565 62.672 183.749 62.992C184.933 63.28 185.925 63.824 186.725 64.624C187.461 65.36 187.941 66.272 188.165 67.36C188.389 68.416 188.501 69.76 188.501 71.392V84.448C188.501 85.248 188.581 85.808 188.741 86.128C188.901 86.416 189.173 86.56 189.557 86.56C189.845 86.56 190.117 86.48 190.373 86.32C190.661 86.16 190.965 85.968 191.285 85.744L191.765 86.56C191.093 87.136 190.309 87.584 189.413 87.904C188.549 88.192 187.573 88.336 186.485 88.336C185.301 88.336 184.357 88.176 183.653 87.856C182.949 87.504 182.437 87.04 182.117 86.464C181.829 85.888 181.685 85.216 181.685 84.448C180.917 85.664 179.989 86.624 178.901 87.328C177.813 88 176.485 88.336 174.917 88.336ZM178.325 85.264C178.965 85.264 179.541 85.12 180.053 84.832C180.597 84.512 181.109 84 181.589 83.296V73.456C181.301 73.936 180.901 74.368 180.389 74.752C179.877 75.136 179.333 75.536 178.757 75.952C178.181 76.336 177.621 76.768 177.077 77.248C176.565 77.728 176.149 78.32 175.829 79.024C175.509 79.728 175.349 80.576 175.349 81.568C175.349 82.816 175.621 83.744 176.165 84.352C176.709 84.96 177.429 85.264 178.325 85.264Z" fill="#E4322E"/>
<path d="M209.648 62.512C210.672 62.512 211.504 62.736 212.144 63.184C212.784 63.6 213.248 64.144 213.536 64.816C213.856 65.488 214.016 66.192 214.016 66.928C214.016 68.112 213.664 69.088 212.96 69.856C212.288 70.592 211.392 70.96 210.272 70.96C209.152 70.96 208.272 70.688 207.632 70.144C207.024 69.568 206.72 68.816 206.72 67.888C206.72 66.992 206.912 66.256 207.296 65.68C207.712 65.072 208.224 64.56 208.832 64.144C208.384 64.016 207.936 64.032 207.488 64.192C206.88 64.288 206.304 64.544 205.76 64.96C205.216 65.344 204.752 65.84 204.368 66.448C203.984 67.024 203.68 67.664 203.456 68.368C203.232 69.04 203.12 69.696 203.12 70.336V83.056C203.12 84.592 203.488 85.632 204.224 86.176C204.992 86.72 206.128 86.992 207.632 86.992V88C206.896 87.968 205.824 87.936 204.416 87.904C203.008 87.84 201.536 87.808 200 87.808C198.72 87.808 197.424 87.84 196.112 87.904C194.8 87.936 193.808 87.968 193.136 88V86.992C194.256 86.992 195.04 86.752 195.488 86.272C195.968 85.792 196.208 84.88 196.208 83.536V68.416C196.208 66.976 195.984 65.92 195.536 65.248C195.12 64.544 194.32 64.192 193.136 64.192V63.184C194.16 63.28 195.152 63.328 196.112 63.328C197.456 63.328 198.704 63.28 199.856 63.184C201.04 63.056 202.128 62.88 203.12 62.656V67.12C203.504 66.256 204.016 65.472 204.656 64.768C205.296 64.064 206.032 63.52 206.864 63.136C207.696 62.72 208.624 62.512 209.648 62.512Z" fill="#E4322E"/>
</svg>
